<svg xmlns="http://www.w3.org/2000/svg" xmlns:xlink="http://www.w3.org/1999/xlink" width="401" height="401" preserveAspectRatio="xMidYMid meet" version="1.1" viewBox="0 0 401 401"><defs><path id="cP4vhvhrf" d="M0 401L0 218.72L182.27 218.72L182.27 401L0 401ZM36.45 364.26L145.82 364.26L145.82 255.18L36.45 255.18L36.45 364.26Z"/><path id="b3K4Wy5wBr" d="M109.36 291.63C109.36 291.63 109.36 291.63 109.36 291.63C109.36 313.51 109.36 325.66 109.36 328.09C109.36 328.09 109.36 328.09 109.36 328.09C87.49 328.09 75.34 328.09 72.91 328.09C72.91 328.09 72.91 328.09 72.91 328.09C72.91 306.22 72.91 294.06 72.91 291.63C72.91 291.63 72.91 291.63 72.91 291.63C94.78 291.63 106.93 291.63 109.36 291.63Z"/><path id="ajtxNY2Qi" d="M328.09 364.55C328.09 364.55 328.09 364.55 328.09 364.55C328.09 386.42 328.09 398.57 328.09 401C328.09 401 328.09 401 328.09 401C306.21 401 294.06 401 291.63 401C291.63 401 291.63 401 291.63 401C291.63 379.13 291.63 366.98 291.63 364.55C291.63 364.55 291.63 364.55 291.63 364.55C313.51 364.55 325.66 364.55 328.09 364.55Z"/><path id="b12z2Qj5i" d="M401 364.55C401 364.55 401 364.55 401 364.55C401 386.42 401 398.57 401 401C401 401 401 401 401 401C379.12 401 366.97 401 364.54 401C364.54 401 364.54 401 364.54 401C364.54 379.13 364.54 366.98 364.54 364.55C364.54 364.55 364.54 364.55 364.54 364.55C386.42 364.55 398.57 364.55 401 364.55Z"/><path id="aDSxNIZuL" d="M328.09 255.18L328.09 218.72L218.72 218.72L218.72 401L255.18 401L255.18 291.63L291.63 291.63L291.63 328.09L401 328.09L401 218.72L401 218.72L364.54 218.72L364.54 255.18L328.09 255.18Z"/><path id="bpcQxL4BR" d="M0 182.28L0 0L182.27 0L182.27 182.28L0 182.28ZM36.45 145.82L145.82 145.82L145.82 36.45L36.45 36.45L36.45 145.82Z"/><path id="b2tkw7De1" d="M109.36 72.91C109.36 72.91 109.36 72.91 109.36 72.91C109.36 94.78 109.36 106.93 109.36 109.36C109.36 109.36 109.36 109.36 109.36 109.36C87.49 109.36 75.34 109.36 72.91 109.36C72.91 109.36 72.91 109.36 72.91 109.36C72.91 87.49 72.91 75.34 72.91 72.91C72.91 72.91 72.91 72.91 72.91 72.91C94.78 72.91 106.93 72.91 109.36 72.91Z"/><path id="b3NlRRtUXl" d="M218.72 182.28L218.72 0L401 0L401 182.28L218.72 182.28ZM255.18 145.82L364.54 145.82L364.54 36.45L255.18 36.45L255.18 145.82Z"/><path id="aiJPdIloT" d="M328.09 72.91C328.09 72.91 328.09 72.91 328.09 72.91C328.09 94.78 328.09 106.93 328.09 109.36C328.09 109.36 328.09 109.36 328.09 109.36C306.21 109.36 294.06 109.36 291.63 109.36C291.63 109.36 291.63 109.36 291.63 109.36C291.63 87.49 291.63 75.34 291.63 72.91C291.63 72.91 291.63 72.91 291.63 72.91C313.51 72.91 325.66 72.91 328.09 72.91Z"/></defs><g><g><g><use fill="#bbb" fill-opacity="1" opacity="1" xlink:href="#cP4vhvhrf"/><g><use fill-opacity="0" stroke="#000" stroke-opacity="0" stroke-width="1" opacity="1" xlink:href="#cP4vhvhrf"/></g></g><g><use fill="#bbb" fill-opacity="1" opacity="1" xlink:href="#b3K4Wy5wBr"/><g><use fill-opacity="0" stroke="#000" stroke-opacity="0" stroke-width="1" opacity="1" xlink:href="#b3K4Wy5wBr"/></g></g><g><use fill="#bbb" fill-opacity="1" opacity="1" xlink:href="#ajtxNY2Qi"/><g><use fill-opacity="0" stroke="#000" stroke-opacity="0" stroke-width="1" opacity="1" xlink:href="#ajtxNY2Qi"/></g></g><g><use fill="#bbb" fill-opacity="1" opacity="1" xlink:href="#b12z2Qj5i"/><g><use fill-opacity="0" stroke="#000" stroke-opacity="0" stroke-width="1" opacity="1" xlink:href="#b12z2Qj5i"/></g></g><g><use fill="#bbb" fill-opacity="1" opacity="1" xlink:href="#aDSxNIZuL"/><g><use fill-opacity="0" stroke="#000" stroke-opacity="0" stroke-width="1" opacity="1" xlink:href="#aDSxNIZuL"/></g></g><g><use fill="#bbb" fill-opacity="1" opacity="1" xlink:href="#bpcQxL4BR"/><g><use fill-opacity="0" stroke="#000" stroke-opacity="0" stroke-width="1" opacity="1" xlink:href="#bpcQxL4BR"/></g></g><g><use fill="#bbb" fill-opacity="1" opacity="1" xlink:href="#b2tkw7De1"/><g><use fill-opacity="0" stroke="#000" stroke-opacity="0" stroke-width="1" opacity="1" xlink:href="#b2tkw7De1"/></g></g><g><use fill="#bbb" fill-opacity="1" opacity="1" xlink:href="#b3NlRRtUXl"/><g><use fill-opacity="0" stroke="#000" stroke-opacity="0" stroke-width="1" opacity="1" xlink:href="#b3NlRRtUXl"/></g></g><g><use fill="#bbb" fill-opacity="1" opacity="1" xlink:href="#aiJPdIloT"/><g><use fill-opacity="0" stroke="#000" stroke-opacity="0" stroke-width="1" opacity="1" xlink:href="#aiJPdIloT"/></g></g></g></g></svg>